<?xml version="1.0" encoding="UTF-8" standalone="no"?>
<!DOCTYPE svg PUBLIC "-//W3C//DTD SVG 1.1//EN" "http://www.w3.org/Graphics/SVG/1.1/DTD/svg11.dtd">
<svg width="100%" height="100%" viewBox="0 0 1080 337" version="1.1" xmlns="http://www.w3.org/2000/svg" xmlns:xlink="http://www.w3.org/1999/xlink" xml:space="preserve" xmlns:serif="http://www.serif.com/" style="fill-rule:evenodd;clip-rule:evenodd;stroke-linejoin:round;stroke-miterlimit:2;">
    <g>
        <g>
            <path d="M1065,14.43L199.29,14.43L199.29,189.67L148.34,189.67C145.79,174.12 138.65,163.32 126.91,157.29C142.46,149.99 150.24,133 150.24,106.34L150.24,81.58C150.24,35.23 122.62,12.06 67.38,12.06C49.6,12.06 34.05,14.28 20.71,18.73L20.71,57.3C36.58,52.54 52.14,50.16 67.38,50.16C95.31,50.16 109.28,61.11 109.28,83.02L109.28,106.35C109.28,116.83 106.82,124.76 101.9,130.16C96.97,135.56 87.69,138.26 74.04,138.26L45.48,138.26L45.48,176.83L74.05,176.83C87.7,176.83 96.98,179.61 101.91,185.16C106.83,190.72 109.29,198.89 109.29,209.68L109.29,239.68C109.29,261.59 95.16,272.54 66.91,272.54C51.03,272.54 33.73,270 15,264.92L15,303.49C29.92,307.94 47.38,310.16 67.38,310.16C121.98,310.16 149.6,286.99 150.24,240.64L150.24,225.4L199.29,225.4L199.29,326.83L240.72,326.83L240.72,49.67L327.38,49.67L327.38,170.15C327.38,189.52 317.22,199.2 296.9,199.2L282.14,198.25L282.14,237.3C286.9,238.25 293.57,238.73 302.14,238.73C323.73,238.73 340.15,232.94 351.43,221.35C362.7,209.76 368.33,193.49 368.33,172.54L368.33,49.67L430.24,49.67L430.24,326.81L471.67,326.81L471.67,49.67L623.57,49.67C626.43,58.88 627.86,68.88 627.86,79.67L627.86,144.43C627.86,164.12 616.59,173.95 594.05,173.95C586.74,173.95 578.02,172.69 567.86,170.14L567.86,112.52L526.43,112.52L526.43,254.9C526.43,278.4 534.05,296.65 549.29,309.66C564.53,322.68 584.84,329.18 610.24,329.18C635.64,329.18 657.7,326.17 676.43,320.13L676.43,282.03C655.48,288.38 636.11,291.55 618.33,291.55C584.68,291.55 567.85,279.01 567.85,253.93L567.85,206.79C577.37,209.33 587.53,210.6 598.33,210.6C622.45,210.6 640.39,204.73 652.14,192.98L718.33,192.98L718.33,263.93C718.33,307.11 740.07,328.22 783.57,327.26L795,326.78L795,288.68C781.98,289 772.77,286.86 767.38,282.25C761.98,277.65 759.28,270.58 759.28,261.06L759.28,174.87C759.28,153.6 771.97,142.97 797.38,142.97L803.09,142.97C818.33,142.97 828.01,148.21 832.14,158.68L832.14,202.97C832.14,231.86 841.19,252.97 859.28,266.3C877.38,279.63 901.34,286.3 931.19,286.3C947.38,286.3 963.57,284.56 979.76,281.06L979.76,326.78L1021.19,326.78L1021.19,49.67L1065,49.67L1065,14.43ZM804.04,104.91L797.37,104.91C751.65,104.91 725.78,122.37 719.75,157.29L667.37,157.29C668,151.58 668.32,147.29 668.32,144.43L668.32,79.67C668.32,66.34 667.2,56.34 664.99,49.67L887.85,49.67C890.39,57.93 891.66,67.93 891.66,79.67L891.66,109.19C891.66,118.4 890.07,125.38 886.9,130.14C883.72,134.9 878.33,138.08 870.71,139.66C862.45,116.5 840.24,104.91 804.04,104.91ZM979.76,243.01C963.88,246.19 946.9,247.77 928.81,247.77C910.72,247.77 896.91,243.72 887.38,235.63C877.86,227.53 873.09,215.24 873.09,198.72L873.09,172.05C912.45,171.1 932.14,152.05 932.14,114.91L932.14,79.67C932.14,66.98 931.02,56.98 928.81,49.67L979.76,49.67L979.76,243.01Z" style="fill:white;fill-rule:nonzero;"/>
        </g>
    </g>
    <g transform="matrix(1,0,0,1,-6.688303,-0.711462)">
        <g transform="matrix(24,0,0,24,1073.387522,87.018281)">
        </g>
        <text x="1038.735px" y="87.018px" style="font-family:'Arial-BoldMT', 'Arial', sans-serif;font-weight:700;font-size:24px;fill:white;">TM</text>
    </g>
</svg>
